<?xml version="1.0" encoding="UTF-8"?>
<svg width="12px" height="12px" viewBox="0 0 12 12" version="1.1" xmlns="http://www.w3.org/2000/svg" xmlns:xlink="http://www.w3.org/1999/xlink">
    <!-- Generator: Sketch 53.1 (72631) - https://sketchapp.com -->
    <title>top_icon_window</title>
    <desc>Created with Sketch.</desc>
    <g id="切图" stroke="none" stroke-width="1" fill="none" fill-rule="evenodd">
        <g id="08" transform="translate(-915.000000, -638.000000)">
            <path d="M918.4,640 L924.6,640 C924.820914,640 925,640.179086 925,640.4 L925,645.6 C925,645.820914 924.820914,646 924.6,646 L918.4,646 C918.179086,646 918,645.820914 918,645.6 L918,640.4 C918,640.179086 918.179086,640 918.4,640 Z" id="矩形" stroke="#92949A" fill="#1E232D" stroke-linecap="round" stroke-linejoin="round"></path>
            <path d="M916.4,642 L922.6,642 C922.820914,642 923,642.179086 923,642.4 L923,647.6 C923,647.820914 922.820914,648 922.6,648 L916.4,648 C916.179086,648 916,647.820914 916,647.6 L916,642.4 C916,642.179086 916.179086,642 916.4,642 Z" id="矩形" stroke="#E9EAEB" fill="#1E232D" stroke-linecap="round" stroke-linejoin="round"></path>
            <g id="分组-13" transform="translate(68.000000, 69.000000)"></g>
        </g>
    </g>
</svg>